<?xml version="1.0" encoding="iso-8859-1"?>
<!-- Generator: Adobe Illustrator 19.0.0, SVG Export Plug-In . SVG Version: 6.00 Build 0)  -->
<svg version="1.1" id="Capa_1" xmlns="http://www.w3.org/2000/svg" xmlns:xlink="http://www.w3.org/1999/xlink" x="0px" y="0px"
	 viewBox="0 0 512 512" style="enable-background:new 0 0 512 512;" xml:space="preserve">
<rect x="150.087" y="138.445" style="fill:#E6E6E6;" width="211.821" height="332.876"/>
<rect x="270.629" y="161.886" style="fill:#F2F2F2;" width="47.03" height="285.992"/>
<rect x="150.087" y="138.445" style="fill:#CCCCCC;" width="64.107" height="331.747"/>
<path style="fill:#9AA7AD;" d="M158.226,97.774C158.226,43.775,202.001,0,256,0s97.774,43.775,97.774,97.774l-105.569,32.059
	L158.226,97.774z"/>
<path style="fill:#838F93;" d="M275.857,2.02C269.444,0.697,262.804,0,256,0c-53.998,0-97.774,43.775-97.774,97.774h39.714
	C197.94,50.579,231.379,11.195,275.857,2.02z"/>
<g>
	<path style="fill:#C4C7D0;" d="M357.333,161.891H154.667c-17.705,0-32.059-14.353-32.059-32.059l0,0
		c0-17.705,14.353-32.059,32.059-32.059h137.429h65.237c17.705,0,32.059,14.353,32.059,32.059l0,0
		C389.391,147.537,375.038,161.891,357.333,161.891z"/>
	<path style="fill:#C4C7D0;" d="M357.333,512H154.667c-17.705,0-32.059-14.353-32.059-32.059l0,0
		c0-17.705,14.353-32.059,32.059-32.059h202.665c17.705,0,32.059,14.353,32.059,32.059l0,0C389.391,497.647,375.038,512,357.333,512
		z"/>
</g>
<g>
	<path style="fill:#ACAFB7;" d="M213.187,161.891h-58.526c-17.704,0-32.053-14.349-32.053-32.053c0-8.852,3.585-16.878,9.385-22.679
		c5.8-5.8,13.816-9.385,22.668-9.385h58.526c-8.852,0-16.868,3.585-22.668,9.385c-5.8,5.8-9.385,13.827-9.385,22.679
		C181.134,147.541,195.483,161.891,213.187,161.891z"/>
	<path style="fill:#ACAFB7;" d="M213.187,512h-58.526c-17.704,0-32.053-14.349-32.053-32.053c0-8.852,3.585-16.878,9.385-22.679
		s13.816-9.385,22.668-9.385h58.526c-8.852,0-16.868,3.585-22.668,9.385c-5.8,5.8-9.385,13.827-9.385,22.679
		C181.134,497.651,195.483,512,213.187,512z"/>
</g>
<polygon style="fill:#005873;" points="233.332,161.891 150.089,201.73 150.089,161.891 "/>
<polygon style="fill:#0071AB;" points="361.911,284.972 361.911,346.508 317.661,367.682 270.631,390.193 214.196,417.199 
	150.089,447.883 150.089,386.347 214.196,355.663 270.631,328.658 317.661,306.146 "/>
<g>
	<polygon style="fill:#F81629;" points="361.911,161.891 361.911,223.426 317.661,244.6 270.631,267.112 214.196,294.117 
		150.089,324.801 150.089,263.266 214.196,232.581 270.631,205.576 317.661,183.064 	"/>
	<polygon style="fill:#F81629;" points="361.911,408.044 361.911,447.883 278.668,447.883 317.661,429.217 	"/>
</g>
<polygon style="fill:#AC1C3E;" points="214.196,232.581 214.196,294.117 150.089,324.801 150.089,263.266 "/>
<polygon style="fill:#FF7A88;" points="278.668,447.883 317.661,429.217 317.661,447.883 "/>
<polygon style="fill:#005873;" points="214.196,355.663 214.196,417.199 150.089,447.883 150.089,386.347 "/>
<polygon style="fill:#FF7A88;" points="317.661,183.064 317.661,244.6 270.631,267.112 270.631,205.576 "/>
<polygon style="fill:#83BEDA;" points="270.631,328.658 317.661,306.146 317.661,367.682 270.631,390.193 "/>
<circle style="fill:#C4C7D0;" cx="305.16" cy="65.183" r="16.682"/>
<g>
</g>
<g>
</g>
<g>
</g>
<g>
</g>
<g>
</g>
<g>
</g>
<g>
</g>
<g>
</g>
<g>
</g>
<g>
</g>
<g>
</g>
<g>
</g>
<g>
</g>
<g>
</g>
<g>
</g>
</svg>
