<svg id="Capa_1" enable-background="new 0 0 501 501" height="512" viewBox="0 0 501 501" width="512" xmlns="http://www.w3.org/2000/svg"><g><path d="m495.5 256c0 135.31-109.69 245-245 245-15.178 0-30.034-1.38-44.449-4.022-1.46-.268-.774-2.465-2.225-2.759-7.777-1.572-15.42-3.513-22.91-5.803-1.211-.37-4.559 1.168-5.761.78-98.445-31.783-169.655-124.174-169.655-233.196 0-135.31 109.69-245 245-245s245 109.69 245 245z" fill="#6e61b5"/><path d="m495.5 256c0 3.408-.07 6.799-.208 10.173-27.315 77.937-101.527 133.827-188.792 133.827-110.457 0-200-89.543-200-200 0-87.266 55.89-161.477 133.827-188.792 3.374-.138 6.765-.208 10.173-.208 135.31 0 245 109.69 245 245z" fill="#968dca"/><path d="m462.559 319.616c.065-.113.13-.225.195-.338 11.508-19.954 5.472-45.396-13.494-58.467-5.322-3.668-10.83-7.155-16.52-10.448s-11.457-6.333-17.289-9.121c-20.782-9.935-45.849-2.496-57.419 17.422-.066.113-.131.225-.196.338-25.896 44.741-44.424 108.711-43.287 161.309.327 15.104 16.438 24.429 29.697 17.189 46.176-25.213 92.417-73.143 118.313-117.884zm-37.29 4.539c-12.099 20.904-47.798 59.607-72.68 64.684-7.992-24.105 7.786-74.337 19.886-95.241.026-.044.051-.088.077-.132 4.531-7.792 16.095-9.688 26.469-4.502 2.911 1.455 5.804 3.012 8.672 4.673 2.868 1.66 5.659 3.393 8.371 5.192 9.664 6.412 13.781 17.384 9.281 25.194-.025.044-.05.088-.076.132z" fill="#fcb30b"/><path d="m352.264 387.802c.104.351.212.697.324 1.037 24.883-5.077 60.581-43.78 72.68-64.684.026-.044.051-.088.076-.132 4.5-7.81.383-18.782-9.281-25.194-2.712-1.799-5.503-3.532-8.372-5.192-1.819-1.053-3.648-2.064-5.486-3.035 11.113-13.234 23.66-25.343 37.49-36.059 3.251 2.026 6.44 4.116 9.563 6.268 18.966 13.071 25.002 38.514 13.494 58.467-.065.113-.13.225-.195.338-25.773 44.527-71.697 92.212-117.652 117.52.765-16.796 3.262-33.318 7.359-49.334z" fill="#f1ca50"/><path d="m239.963 418.698 24.537 24.537-58.454 53.742c-10.551-1.934-20.866-4.543-30.897-7.783z" fill="#c98001"/><path d="m394.207 197.28-6.941-20.544c-.399-1.182-1.327-2.11-2.509-2.509l-20.544-6.941c-3.626-1.225-3.626-6.354 0-7.579l20.544-6.941c1.182-.399 2.11-1.327 2.509-2.509l6.941-20.544c1.225-3.626 6.354-3.626 7.579 0l6.941 20.544c.399 1.182 1.327 2.11 2.509 2.509l20.544 6.941c3.626 1.225 3.626 6.354 0 7.579l-20.544 6.941c-1.182.399-2.11 1.327-2.509 2.509l-6.941 20.544c-1.225 3.627-6.354 3.627-7.579 0z" fill="#c1bbdf"/><path d="m325.719 347.191-3.305-9.783c-.19-.563-.632-1.005-1.195-1.195l-9.783-3.305c-1.727-.583-1.727-3.026 0-3.609l9.783-3.305c.563-.19 1.005-.632 1.195-1.195l3.305-9.783c.583-1.727 3.026-1.727 3.609 0l3.305 9.783c.19.563.632 1.005 1.195 1.195l9.783 3.305c1.727.583 1.727 3.026 0 3.609l-9.783 3.305c-.563.19-1.005.632-1.195 1.195l-3.305 9.783c-.583 1.727-3.025 1.727-3.609 0z" fill="#fff5f5"/><path d="m335.798 178.698-36.114 59.288c-4.503 7.393-13.517 10.694-21.73 7.959-8.213-2.736-13.447-10.783-12.617-19.4l6.103-63.406-33.138 54.401c-4.503 7.393-13.517 10.695-21.73 7.959-8.213-2.736-13.447-10.783-12.617-19.4l6.103-63.406-33.137 54.401c-4.503 7.393-13.517 10.694-21.73 7.959-8.213-2.736-13.447-10.783-12.617-19.4l6.103-63.406-33.138 54.401c-4.503 7.393-13.517 10.694-21.73 7.959-8.213-2.736-13.447-10.783-12.617-19.4l6.651-69.102 61.382 20.446 61.382 20.446 63.81 21.255z" fill="#962437"/><path d="m374.166 109.054-64.654-8.231c4.107-4.423 7.357-9.775 9.389-15.875 7.61-22.846-4.741-47.534-27.587-55.144l-82.73-27.558c-22.845-7.609-47.534 4.742-55.144 27.587-2.205 6.621-2.734 13.396-1.817 19.865l-67.166-37.144c-21.319-7.101-42.695 10.618-39.67 32.884l12.522 92.165c.016.115.032.229.049.343 2.228 15.107 23.198 17.315 28.767 3.096l20.809-53.137c2.239-5.886 8.72-8.959 14.694-6.97 5.974 1.99 2.943 7.404 1.206 13.456l-14.876 53.358c-2.217 7.722 8.422 16.752 16.045 19.291l4.687 1.562c7.623 2.539 15.892-1.383 18.748-8.893l19.956-51.266c2.22-5.835 8.554-9.237 14.527-7.421-8.66-2.633 6.427-2.437 3.294 8.477l-15.335 55.891c-2.217 7.723 2.049 15.82 9.671 18.359l9.734 5.036c7.623 2.539 15.892-1.383 18.748-8.892l20.091-51.621c2.239-5.885 8.72-8.959 14.694-6.97 5.974 1.99 2.875 8.288 1.137 14.34l-14.876 53.357c-2.217 7.723 2.049 15.82 9.671 18.359l11.13 1.61c7.623 2.539 15.892-1.383 18.748-8.893l19.956-51.266c2.22-5.835 8.554-9.237 14.527-7.421 6.163 1.874 5.404 3.955 3.638 10.109l-15.211 55.002c-4.07 14.718 18.279 29.902 29.121 19.148.082-.081.164-.163.245-.246l65.288-66.248c15.774-16 9.293-42.998-12.026-50.099zm-90.361-31.62c-2.767 8.308-11.745 12.799-20.052 10.032l-67.689-22.546c-8.307-2.767-12.799-11.745-10.032-20.052 2.767-8.308 11.745-12.799 20.052-10.032l67.689 22.546c8.307 2.767 12.799 11.745 10.032 20.052z" fill="#ab2538"/><path d="m384.544 188.192-65.288 66.248c-.082.083-.163.165-.245.246-10.842 10.754-28.947-.054-24.877-14.772l15.211-55.002c1.767-6.154-1.719-12.611-7.882-14.485-5.973-1.816-12.307 1.585-14.527 7.421l-19.956 51.266c-2.857 7.51-11.126 11.432-18.748 8.893l-4.688-1.562c-7.623-2.539-11.888-10.636-9.671-18.358l14.876-53.358c1.738-6.053-1.605-12.399-7.58-14.389-5.974-1.99-12.455 1.084-14.694 6.97l-20.091 51.621c-2.857 7.509-11.126 11.431-18.749 8.892l-4.687-1.561c-7.623-2.539-11.888-10.636-9.671-18.359l14.876-53.358c1.767-6.154-1.719-12.611-7.882-14.485-5.973-1.816-12.307 1.585-14.527 7.421l-19.956 51.266c-2.857 7.51-11.126 11.432-18.748 8.893l-4.687-1.562c-7.623-2.539-11.888-10.636-9.671-18.358l14.876-53.358c1.738-6.052-1.605-12.398-7.579-14.389-5.974-1.99-12.455 1.084-14.694 6.97l-20.826 53.177c-5.609 14.323-26.621 11.908-28.777-3.322-.007-.053-.015-.106-.022-.159l-12.522-92.166c-3.025-22.266 18.35-39.985 39.669-32.884l102.041 33.989c5.785 1.927 11.393-3.144 10.197-9.122-.137-.685-.258-1.375-.362-2.068.448.197 24.089 8.096 24.562 8.254l44.508 14.825c8.307 2.767 16.147-2.492 18.914-10.799 2.767-8.307-1.297-16.212-9.604-18.979l-25.975-9.194c-14.005-4.665-14.595-24.257-.895-29.755 3.485-1.399 7.353-1.515 10.916-.328l34.516 10.588c22.845 7.61 35.735 33.029 28.125 55.875-4.25 12.761-14.678 22.318-26.288 26.881l79.055 26.333c21.319 7.101 27.799 34.099 12.027 50.103z" fill="#e43950"/><path d="m232.002 334.727c-5.111-14.204-15.75-19.276-24.298-23.35-5.708-2.721-11.099-5.291-16.807-10.809-8.204-7.928-10.134-15.162-12.578-24.321-2.744-10.282-6.158-23.08-19.714-33.412-21.863-16.667-56.677-17.17-76.025-1.105-11.434 9.494-17.754 24.428-18.276 43.186-.833 29.922 13.27 63.647 35.092 83.922 16.761 15.572 35.984 21.583 49.51 24.437 3.884.82 7.3 1.379 10.052 1.83h.001c18.331 3.004 43.439 7.118 61.176-10.563 12.913-12.869 17.793-33.354 11.867-49.815zm-33.044 28.566c-6.37 6.349-18.586 4.919-35.148 2.206h-.001c-10.151-1.665-29.053-4.76-43.993-18.64-15.376-14.286-26.111-39.986-25.523-61.109.27-9.738 2.918-17.175 7.452-20.94 5.62-4.666 15.924-5.87 25.339-3.883 4.966 1.048 9.683 2.984 13.334 5.766 5.182 3.95 6.478 8.155 8.916 17.288 2.753 10.315 6.522 24.442 20.714 38.158 9.229 8.92 18.199 13.196 24.747 16.318 7.402 3.529 8.2 4.261 8.98 6.429 1.988 5.521-.173 13.779-4.817 18.407z" fill="#002c5d"/><path d="m180.369 293.269c-4.221 11.805-23.119 14.059-27.529 2.323-2.128-5.662-2.777-8.877-3.506-11.612-2.437-9.132-3.734-13.337-8.916-17.288-1.461-1.113-4.339-2.342-7.359-3.425-6.111-2.193-10.226-7.936-10.226-14.428 0-10.621 10.604-18.125 20.537-14.367 5.475 2.071 10.641 4.859 15.235 8.362 13.555 10.332 16.97 23.129 19.714 33.412.724 2.711 1.402 5.253 2.211 7.695 1.006 3.032.914 6.32-.161 9.328z" fill="#003c79"/><path d="m64.759 287.993-5.123-15.164c-.295-.872-.98-1.557-1.852-1.852l-15.164-5.123c-2.677-.904-2.677-4.69 0-5.594l15.164-5.123c.872-.295 1.557-.98 1.852-1.852l5.123-15.164c.904-2.677 4.69-2.677 5.594 0l5.123 15.164c.295.872.98 1.557 1.852 1.852l15.164 5.123c2.677.904 2.677 4.69 0 5.594l-15.164 5.123c-.872.295-1.557.98-1.852 1.852l-5.123 15.164c-.904 2.676-4.689 2.676-5.594 0z" fill="#f5c02c"/><path d="m193.011 397.665c0 2.255-1.865 4.076-4.119 4.005-10.643-.337-21.004-2.034-30.116-3.527h-.001c-3.688-.605-8.267-1.354-13.474-2.453-4.996-1.054-10.572-2.43-16.5-4.306-1.669-.528-2.812-2.072-2.812-3.823v-34.326c0-2.863 2.922-4.791 5.558-3.676 13.018 5.506 25.511 7.553 33.728 8.9l.001.001c8.982 1.471 17.009 2.661 23.951 2.993 2.124.102 3.783 1.865 3.783 3.991v32.221z" fill="#c98001"/><path d="m193.01 377.915v19.75c0 2.255-1.865 4.076-4.119 4.005-10.643-.337-21.004-2.034-30.116-3.527h-.001c-3.688-.604-8.267-1.354-13.474-2.453-4.996-1.054-10.572-2.429-16.5-4.306-1.668-.528-2.812-2.072-2.812-3.823v-19.75c0 1.75 1.143 3.294 2.812 3.823 5.927 1.877 11.503 3.252 16.5 4.306 5.206 1.099 9.786 1.849 13.474 2.453h.001c9.112 1.494 19.473 3.19 30.116 3.527 2.255.071 4.119-1.75 4.119-4.005z" fill="#f19b0b"/><path d="m274.5 438.698c0 16.569-13.431 30-30 30s-30-13.431-30-30 13.431-30 30-30 30 13.431 30 30zm22.439-195.439c0 23.438-19 42.439-42.439 42.439s-42.439-19-42.439-42.439 19-42.439 42.439-42.439 42.439 19.001 42.439 42.439z" fill="#f9d19a"/><path d="m264.5 435c0 8.284-4.477 15-10 15s-10-6.716-10-15 4.477-15 10-15 10 6.716 10 15zm18.292-196.972c0 11.719-6.333 21.219-14.146 21.219s-14.146-9.5-14.146-21.219 6.333-21.219 14.146-21.219 14.146 9.5 14.146 21.219z" fill="#fff5f5"/></g></svg>