<?xml version="1.0" encoding="UTF-8"?>
<svg xmlns="http://www.w3.org/2000/svg" xmlns:xlink="http://www.w3.org/1999/xlink" width="500pt" height="375pt" viewBox="0 0 500 375" version="1.1">
<g id="surface1">
<path style=" stroke:none;fill-rule:nonzero;fill:rgb(97.254902%,82.745098%,13.72549%);fill-opacity:1;" d="M 150.832031 154.769531 L 123.519531 154.769531 C 123.234375 154.769531 123.046875 154.957031 123.046875 155.238281 L 123.046875 156.085938 C 123.046875 156.371094 123.234375 156.558594 123.519531 156.558594 L 136.234375 156.558594 L 136.234375 220.230469 C 136.234375 220.515625 136.421875 220.703125 136.703125 220.703125 L 137.644531 220.703125 C 137.929688 220.703125 138.117188 220.515625 138.117188 220.230469 L 138.117188 156.558594 L 150.832031 156.558594 C 151.117188 156.558594 151.304688 156.371094 151.304688 156.085938 L 151.304688 155.238281 C 151.304688 154.957031 151.117188 154.769531 150.832031 154.769531 Z M 150.832031 154.769531 "/>
<path style=" stroke:none;fill-rule:nonzero;fill:rgb(97.254902%,82.745098%,13.72549%);fill-opacity:1;" d="M 165.289062 220.703125 L 166.230469 220.703125 C 166.511719 220.703125 166.703125 220.515625 166.703125 220.230469 L 166.703125 191.878906 L 178.851562 191.878906 L 192.414062 220.324219 C 192.511719 220.515625 192.792969 220.703125 192.980469 220.703125 L 194.015625 220.703125 C 194.300781 220.703125 194.488281 220.417969 194.394531 220.136719 L 180.832031 191.878906 C 187.421875 191.503906 193.453125 185.003906 193.453125 176.339844 L 193.453125 169.652344 C 193.453125 160.703125 187.421875 154.109375 179.136719 154.109375 C 170.753906 154.109375 164.816406 160.703125 164.816406 169.652344 L 164.816406 220.230469 C 164.816406 220.515625 165.007812 220.703125 165.289062 220.703125 Z M 166.703125 190.089844 L 166.703125 169.652344 C 166.703125 161.550781 171.882812 155.898438 179.136719 155.898438 C 186.480469 155.898438 191.566406 161.550781 191.566406 169.652344 L 191.566406 176.339844 C 191.566406 184.4375 186.480469 190.089844 179.136719 190.089844 Z M 166.703125 190.089844 "/>
<path style=" stroke:none;fill-rule:nonzero;fill:rgb(97.254902%,82.745098%,13.72549%);fill-opacity:1;" d="M 213.140625 155.238281 L 213.140625 220.230469 C 213.140625 220.515625 213.328125 220.703125 213.613281 220.703125 L 214.554688 220.703125 C 214.835938 220.703125 215.023438 220.515625 215.023438 220.230469 L 215.023438 155.238281 C 215.023438 154.957031 214.835938 154.769531 214.554688 154.769531 L 213.613281 154.769531 C 213.328125 154.769531 213.140625 154.957031 213.140625 155.238281 Z M 213.140625 155.238281 "/>
<path style=" stroke:none;fill-rule:nonzero;fill:rgb(97.254902%,82.745098%,13.72549%);fill-opacity:1;" d="M 273.613281 154.109375 C 267.871094 154.109375 263.347656 158.160156 261.464844 163.71875 C 259.582031 158.160156 254.964844 154.109375 249.3125 154.109375 C 241.023438 154.109375 236.03125 160.890625 236.03125 169.652344 L 236.03125 220.230469 C 236.03125 220.515625 236.222656 220.703125 236.503906 220.703125 L 237.445312 220.703125 C 237.730469 220.703125 237.917969 220.515625 237.917969 220.230469 L 237.917969 169.652344 C 237.917969 161.738281 242.15625 155.898438 249.3125 155.898438 C 255.90625 155.898438 260.523438 162.023438 260.523438 169.652344 L 260.523438 220.230469 C 260.523438 220.515625 260.710938 220.703125 260.992188 220.703125 L 261.933594 220.703125 C 262.21875 220.703125 262.40625 220.515625 262.40625 220.230469 L 262.40625 169.652344 C 262.40625 162.023438 267.117188 155.898438 273.613281 155.898438 C 280.867188 155.898438 285.011719 161.738281 285.011719 169.652344 L 285.011719 220.230469 C 285.011719 220.515625 285.199219 220.703125 285.484375 220.703125 L 286.425781 220.703125 C 286.707031 220.703125 286.894531 220.515625 286.894531 220.230469 L 286.894531 169.652344 C 286.894531 160.890625 281.808594 154.109375 273.613281 154.109375 Z M 273.613281 154.109375 "/>
<path style=" stroke:none;fill-rule:nonzero;fill:rgb(97.254902%,82.745098%,13.72549%);fill-opacity:1;" d="M 320.621094 220.890625 L 329.097656 220.890625 C 329.378906 220.890625 329.566406 220.703125 329.566406 220.417969 L 329.566406 219.570312 C 329.566406 219.289062 329.378906 219.101562 329.097656 219.101562 L 320.621094 219.101562 C 312.707031 219.101562 307.902344 213.449219 307.902344 205.347656 L 307.902344 188.019531 L 327.214844 188.019531 C 327.496094 188.019531 327.683594 187.828125 327.683594 187.546875 L 327.683594 186.699219 C 327.683594 186.417969 327.496094 186.226562 327.214844 186.226562 L 307.902344 186.226562 L 307.902344 170.121094 C 307.902344 162.023438 312.707031 156.371094 320.621094 156.371094 L 329.097656 156.371094 C 329.378906 156.371094 329.566406 156.183594 329.566406 155.898438 L 329.566406 155.050781 C 329.566406 154.769531 329.378906 154.582031 329.097656 154.582031 L 320.621094 154.582031 C 311.578125 154.582031 306.019531 161.171875 306.019531 170.121094 L 306.019531 205.347656 C 306.019531 214.296875 311.578125 220.890625 320.621094 220.890625 Z M 320.621094 220.890625 "/>
<path style=" stroke:none;fill-rule:nonzero;fill:rgb(97.254902%,82.745098%,13.72549%);fill-opacity:1;" d="M 347.824219 220.703125 L 348.765625 220.703125 C 349.046875 220.703125 349.238281 220.515625 349.238281 220.230469 L 349.238281 191.878906 L 361.386719 191.878906 L 374.949219 220.324219 C 375.042969 220.515625 375.328125 220.703125 375.515625 220.703125 L 376.550781 220.703125 C 376.835938 220.703125 377.023438 220.417969 376.929688 220.136719 L 363.363281 191.878906 C 369.957031 191.503906 375.988281 185.003906 375.988281 176.339844 L 375.988281 169.652344 C 375.988281 160.703125 369.957031 154.109375 361.667969 154.109375 C 353.285156 154.109375 347.351562 160.703125 347.351562 169.652344 L 347.351562 220.230469 C 347.351562 220.515625 347.542969 220.703125 347.824219 220.703125 Z M 349.238281 190.089844 L 349.238281 169.652344 C 349.238281 161.550781 354.417969 155.898438 361.667969 155.898438 C 369.015625 155.898438 374.101562 161.550781 374.101562 169.652344 L 374.101562 176.339844 C 374.101562 184.4375 369.015625 190.089844 361.667969 190.089844 Z M 349.238281 190.089844 "/>
</g>
</svg>
