<svg xmlns:dc="http://purl.org/dc/elements/1.1/" xmlns:cc="http://creativecommons.org/ns#" xmlns:rdf="http://www.w3.org/1999/02/22-rdf-syntax-ns#" xmlns:svg="http://www.w3.org/2000/svg" xmlns="http://www.w3.org/2000/svg" id="svg549978" viewBox="0 0 15 285" height="500px" width="1000px" version="1.1">
  <metadata id="metadata549984">
    <rdf:rdf>
      <cc:work rdf:about="">
        <dc:format>image/svg+xml</dc:format>
        <dc:type rdf:resource="http://purl.org/dc/dcmitype/StillImage"></dc:type>
      </cc:work>
    </rdf:rdf>
  </metadata>
  <defs id="defs549982"></defs>
  <g id="logo-group">
    <g id="title" style="font-style:normal;font-weight:200;font-size:72px;line-height:1;font-family:Phenomena;font-variant-ligatures:none;text-align:center;text-anchor:middle" aria-label="TRIMER">
      <path id="path549986" style="font-style: normal; font-weight: 200; font-size: 72px; line-height: 1; font-family: Phenomena; font-variant-ligatures: none; text-align: center; text-anchor: middle; fill: rgb(248, 211, 35);" d="m 448.07187,69.6 h -20.88 c -0.216,0 -0.35999,0.144 -0.35999,0.36 v 0.648 c 0,0.216 0.14399,0.36 0.35999,0.36 h 9.72 v 48.672 c 0,0.216 0.14401,0.36 0.36001,0.36 h 0.71999 c 0.216,0 0.36,-0.144 0.36,-0.36 V 70.968 h 9.72 c 0.216,0 0.36,-0.144 0.36,-0.36 V 69.96 c 0,-0.216 -0.144,-0.36 -0.36,-0.36 z" transform="translate(0 0.59067279131065) translate(1.99999999999994 0.37589572738085) scale(3.6791939041290354) translate(-500.83188 -62.6)"></path>
      <path id="path549988" style="font-style: normal; font-weight: 200; font-size: 72px; line-height: 1; font-family: Phenomena; font-variant-ligatures: none; text-align: center; text-anchor: middle; fill: rgb(248, 211, 35);" d="m 454.12212,120 h 0.72 c 0.21601,0 0.36001,-0.144 0.36001,-0.36 V 97.968 h 9.28799 l 10.368,21.744 c 0.072,0.144 0.288,0.288 0.432,0.288 h 0.79201 c 0.216,0 0.35999,-0.216 0.288,-0.432 l -10.36801,-21.6 c 5.04,-0.288 9.648,-5.256 9.648,-11.88 v -5.112 c 0,-6.84 -4.608,-11.88 -10.944,-11.88 -6.40799,0 -10.94399,5.04 -10.94399,11.88 v 38.664 c 0,0.216 0.14399,0.36 0.35999,0.36 z m 1.08001,-23.4 V 80.976 c 0,-6.192 3.95999,-10.512 9.50399,-10.512 5.61601,0 9.504,4.32 9.504,10.512 v 5.112 c 0,6.192 -3.88799,10.512 -9.504,10.512 z" transform="translate(0 0.59067279131065) translate(337.54733115731614 0.02558199969982) scale(3.6791939041290354) translate(-595.76213 -62.096)"></path>
      <path id="path549990" style="font-style: normal; font-weight: 200; font-size: 72px; line-height: 1; font-family: Phenomena; font-variant-ligatures: none; text-align: center; text-anchor: middle; fill: rgb(248, 211, 35);" d="m 485.70087,69.96 v 49.68 c 0,0.216 0.144,0.36 0.36,0.36 h 0.72 c 0.216,0 0.36,-0.144 0.36,-0.36 V 69.96 c 0,-0.216 -0.144,-0.36 -0.36,-0.36 h -0.72 c -0.216,0 -0.36,0.144 -0.36,0.36 z" transform="translate(0 0.59067279131065) translate(436.51337819152343 0.37589572738085) scale(3.6791939041290354) translate(-625.70087 -62.6)"></path>
      <path id="path549992" style="font-style: normal; font-weight: 200; font-size: 72px; line-height: 1; font-family: Phenomena; font-variant-ligatures: none; text-align: center; text-anchor: middle; fill: rgb(248, 211, 35);" d="m 526.92763,69.096 c -4.39201,0 -7.84801,3.096 -9.288,7.344 -1.44001,-4.248 -4.96801,-7.344 -9.288,-7.344 -6.33601,0 -10.152,5.184 -10.152,11.88 v 38.664 c 0,0.216 0.14399,0.36 0.35999,0.36 h 0.72 c 0.21601,0 0.36001,-0.144 0.36001,-0.36 V 80.976 c 0,-6.048 3.23999,-10.512 8.712,-10.512 5.03999,0 8.56799,4.68 8.56799,10.512 v 38.664 c 0,0.216 0.144,0.36 0.36,0.36 h 0.72001 c 0.216,0 0.36,-0.144 0.36,-0.36 V 80.976 c 0,-5.832 3.59999,-10.512 8.568,-10.512 5.544,0 8.712,4.464 8.712,10.512 v 38.664 c 0,0.216 0.144,0.36 0.36,0.36 h 0.71999 c 0.216,0 0.36,-0.144 0.36,-0.36 V 80.976 c 0,-6.696 -3.88799,-11.88 -10.15199,-11.88 z" transform="translate(0 0.59067279131065) translate(483.39594931334045 0.02558199969982) scale(3.6791939041290354) translate(-640.19963 -62.096)"></path>
      <path id="path549994" style="font-style: normal; font-weight: 200; font-size: 72px; line-height: 1; font-family: Phenomena; font-variant-ligatures: none; text-align: center; text-anchor: middle; fill: rgb(248, 211, 35);" d="m 557.85838,120.144 h 6.48 c 0.216,0 0.35999,-0.144 0.35999,-0.36 v -0.648 c 0,-0.216 -0.14399,-0.36 -0.35999,-0.36 h -6.48 c -6.048,0 -9.72001,-4.32 -9.72001,-10.512 V 95.016 h 14.76 c 0.216,0 0.36,-0.144 0.36,-0.36 v -0.648 c 0,-0.216 -0.144,-0.36 -0.36,-0.36 h -14.76 V 81.336 c 0,-6.192 3.67201,-10.512 9.72001,-10.512 h 6.48 c 0.216,0 0.35999,-0.144 0.35999,-0.36 v -0.648 c 0,-0.216 -0.14399,-0.36 -0.35999,-0.36 h -6.48 c -6.91201,0 -11.16,5.04 -11.16,11.88 v 26.928 c 0,6.84 4.24799,11.88 11.16,11.88 z" transform="translate(0 0.59067279131065) translate(626.7294741918639 0.9900918051863) scale(3.6791939041290354) translate(-682.69838 -62.456)"></path>
      <path id="path549996" style="font-style: normal; font-weight: 200; font-size: 72px; line-height: 1; font-family: Phenomena; font-variant-ligatures: none; text-align: center; text-anchor: middle; fill: rgb(248, 211, 35);" d="m 573.65337,120 h 0.72 c 0.21601,0 0.36001,-0.144 0.36001,-0.36 V 97.968 h 9.288 l 10.36799,21.744 c 0.072,0.144 0.288,0.288 0.432,0.288 h 0.79201 c 0.216,0 0.36,-0.216 0.288,-0.432 l -10.36801,-21.6 c 5.04,-0.288 9.648,-5.256 9.648,-11.88 v -5.112 c 0,-6.84 -4.608,-11.88 -10.94399,-11.88 -6.408,0 -10.94401,5.04 -10.94401,11.88 v 38.664 c 0,0.216 0.144,0.36 0.36,0.36 z m 1.08001,-23.4 V 80.976 c 0,-6.192 3.95999,-10.512 9.504,-10.512 5.616,0 9.50399,4.32 9.50399,10.512 v 5.112 c 0,6.192 -3.88799,10.512 -9.50399,10.512 z" transform="translate(0 0.59067279131065) translate(711.3785788008815 0.02558199969982) scale(3.6791939041290354) translate(-710.29337 -62.096)"></path>
    </g>
    <g id="tagline" style="font-style:oblique;font-weight:300;font-size:32px;line-height:1;font-family:'Fira Sans Condensed';font-variant-ligatures:none;text-align:center;text-anchor:middle"></g>
  </g>
</svg>